<svg xmlns="http://www.w3.org/2000/svg" width="24" height="24" fill="none" viewBox="0 0 24 24">
  <path fill="#0D0D0D" fill-rule="evenodd" d="M7.5 5.25a3 3 0 0 1 3-3h3a3 3 0 0 1 3 3v.205c.933.085 1.857.197 2.774.334 1.454.218 2.476 1.483 2.476 2.917v3.033c0 1.211-.734 2.352-1.936 2.752A24.728 24.728 0 0 1 12 15.75a24.72 24.72 0 0 1-7.814-1.259c-1.202-.4-1.936-1.541-1.936-2.752V8.706c0-1.434 1.022-2.7 2.476-2.917.921-.138 1.846-.25 2.774-.334V5.25Zm7.5 0v.09a49.49 49.49 0 0 0-6 0v-.09a1.5 1.5 0 0 1 1.5-1.5h3a1.5 1.5 0 0 1 1.5 1.5Zm-3 8.25a.75.75 0 1 0 0-1.5.75.75 0 0 0 0 1.5Z" clip-rule="evenodd"/>
  <path fill="#0D0D0D" d="M3 18.4v-2.796c.228.125.466.228.713.31A26.225 26.225 0 0 0 12 17.25c2.892 0 5.68-.468 8.287-1.335.252-.084.49-.189.713-.311V18.4c0 1.452-1.047 2.728-2.523 2.923a49.224 49.224 0 0 1-12.954 0C4.047 21.128 3 19.852 3 18.4Z"/>
</svg>
