<svg xmlns="http://www.w3.org/2000/svg" width="24" height="24" fill="none" viewBox="0 0 24 24">
  <path fill="#0D0D0D" d="M8.557 7.994H5.045v2.693H8.34c.57 0 1.072-.182 1.072-1.438 0-1.255-.854-1.255-.854-1.255ZM5.045 15.77H8.38c.5-.01 1.45-.156 1.45-1.567 0-1.674-1.273-1.657-1.273-1.657H5.045v3.224Zm12.503-5.083c-1.864 0-2.123 1.859-2.123 1.859h3.963s.023-1.86-1.84-1.86Z"/>
  <path fill="#0D0D0D" fill-rule="evenodd" d="M1.2 0A1.2 1.2 0 0 0 0 1.2v21.6A1.2 1.2 0 0 0 1.2 24h21.6a1.2 1.2 0 0 0 1.2-1.2V1.2A1.2 1.2 0 0 0 22.8 0H1.2Zm10.771 9.062c0 2.16-1.84 2.296-1.84 2.296 2.426 0 2.259 2.995 2.259 2.995 0 3.682-3.833 3.561-3.833 3.561H2.28V5.85h6.278c1.908 0 3.414 1.054 3.414 3.212Zm.894 4.493s-.004-4.636 4.636-4.636c4.883 0 4.199 5.237 4.199 5.237h-6.252c0 2.242 2.124 2.1 2.124 2.1 2.005 0 1.934-1.297 1.934-1.297h2.123c0 3.443-4.128 3.208-4.128 3.208-4.954 0-4.636-4.612-4.636-4.612Zm2.04-5.509h4.978V6.561h-4.978v1.485Z" clip-rule="evenodd"/>
</svg>
