<svg xmlns="http://www.w3.org/2000/svg" width="24" height="24" fill="none" viewBox="0 0 24 24">
  <g clip-path="url(#a)">
    <path fill="#0D0D0D" d="M20.329 4.612a19.858 19.858 0 0 0-4.954-1.524c-.234.419-.445.85-.634 1.29a18.447 18.447 0 0 0-5.497 0c-.19-.44-.4-.871-.635-1.29a19.997 19.997 0 0 0-4.957 1.528C.517 9.254-.333 13.776.092 18.236a19.966 19.966 0 0 0 6.075 3.05c.492-.662.927-1.364 1.301-2.099a12.916 12.916 0 0 1-2.048-.978c.171-.125.34-.253.502-.378a14.27 14.27 0 0 0 12.146 0c.165.134.333.263.503.378a13.01 13.01 0 0 1-2.053.98c.373.734.809 1.436 1.301 2.096a19.876 19.876 0 0 0 6.079-3.048c.498-5.17-.852-9.652-3.57-13.625ZM8.007 15.493c-1.184 0-2.163-1.074-2.163-2.396 0-1.322.945-2.406 2.159-2.406s2.185 1.084 2.164 2.406c-.02 1.322-.954 2.396-2.16 2.396Zm7.976 0c-1.186 0-2.16-1.074-2.16-2.396 0-1.322.944-2.406 2.16-2.406 1.217 0 2.18 1.084 2.159 2.406-.02 1.322-.952 2.396-2.159 2.396Z"/>
  </g>
  <defs>
    <clipPath id="a">
      <path fill="#fff" d="M0 0h24v24H0z"/>
    </clipPath>
  </defs>
</svg>
