<svg xmlns="http://www.w3.org/2000/svg" width="24" height="24" fill="none" viewBox="0 0 24 24">
  <path fill="#0D0D0D" d="M7.192 1.009a12.006 12.006 0 0 1 11.566 1.068 17.69 17.69 0 0 1-5.144 4.671 19.543 19.543 0 0 0-6.422-5.74Zm4.771 6.61a17.664 17.664 0 0 0-6.712-5.53A12.045 12.045 0 0 0 .453 8.73a17.55 17.55 0 0 0 4.167.5 17.46 17.46 0 0 0 7.343-1.61ZM24 11.272a11.968 11.968 0 0 0-3.798-8.041 19.55 19.55 0 0 1-5.59 5.07 19.293 19.293 0 0 1 1.565 3.45c2.548-.69 5.21-.852 7.823-.479Zm-7.314 2.254c.342 1.454.515 2.944.514 4.439a19.442 19.442 0 0 1-.703 5.166 12.038 12.038 0 0 0 7.47-9.998 17.615 17.615 0 0 0-7.28.393Zm-2.268-1.207a17.468 17.468 0 0 0-1.431-3.139 19.3 19.3 0 0 1-8.367 1.897c-1.526 0-3.047-.18-4.531-.535a11.977 11.977 0 0 0 4.153 10.601 19.509 19.509 0 0 1 10.176-8.824ZM5.75 22.237a12.014 12.014 0 0 0 8.615 1.531 17.507 17.507 0 0 0 .556-9.665 17.653 17.653 0 0 0-9.17 8.134Z"/>
</svg>
