<svg xmlns="http://www.w3.org/2000/svg" width="40" height="26" fill="none" viewBox="0 0 40 26">
  <path fill="#fff" d="M0 0h6.07v2.502H2.63v20.996h3.44V26H0V0Z"/>
  <path fill="#fff" fill-rule="evenodd" d="M26.342 6.24c-1.543-1.608-3.669-2.413-6.376-2.413-1.723 0-3.244.39-4.564 1.171-1.32.757-2.35 1.834-3.088 3.23a9.14 9.14 0 0 0-.829 2.324h-3.62l-1.796 3.956h5.262c.15 1.227.49 2.338 1.017 3.336a8.036 8.036 0 0 0 3.188 3.193c1.387.757 3.01 1.136 4.866 1.136 1.432 0 2.786-.26 4.06-.781 1.276-.52 2.35-1.254 3.223-2.2L25.2 16.495c-.537.52-1.22.935-2.047 1.242a7.91 7.91 0 0 1-2.584.426c-1.32 0-2.416-.331-3.289-.994-.85-.662-1.353-1.549-1.51-2.66H32.4l1.396-3.957H28.47c-.314-1.74-1.024-3.177-2.129-4.312Zm-2.116 4.312a3.613 3.613 0 0 0-1.14-1.863c-.76-.663-1.755-.994-2.986-.994-1.186 0-2.159.331-2.92.994-.55.476-.94 1.097-1.166 1.863h8.212Z" clip-rule="evenodd"/>
  <path fill="#fff" d="M33.797 0h6.07v26h-6.07v-2.502h3.44V2.502h-3.44V0Z"/>
</svg>
