<svg xmlns="http://www.w3.org/2000/svg" width="92" height="60" fill="none" viewBox="0 0 92 60">
  <path fill="#0D0D0D" d="M0 0h14.006v5.773H6.067v48.454h7.94V60H0V0Z"/>
  <path fill="#0D0D0D" fill-rule="evenodd" d="M60.79 14.4c-3.563-3.711-8.468-5.568-14.715-5.568-3.976 0-7.486.901-10.533 2.703-3.046 1.747-5.42 4.23-7.125 7.451a21.098 21.098 0 0 0-1.913 5.366H18.15l-4.143 9.129h12.142c.347 2.83 1.13 5.395 2.347 7.696 1.755 3.167 4.208 5.623 7.357 7.37 3.201 1.747 6.944 2.62 11.23 2.62 3.304 0 6.428-.6 9.37-1.801 2.944-1.201 5.422-2.893 7.436-5.077l-5.731-6.223c-1.24 1.2-2.814 2.156-4.725 2.866-1.91.655-3.898.982-5.963.982-3.046 0-5.576-.764-7.59-2.292-1.962-1.529-3.123-3.576-3.485-6.141h38.377l3.223-9.13H65.702c-.725-4.015-2.362-7.332-4.912-9.95Zm-4.885 9.952c-.45-1.734-1.326-3.168-2.628-4.301-1.755-1.529-4.053-2.293-6.892-2.293-2.737 0-4.983.764-6.738 2.293-1.27 1.1-2.168 2.533-2.692 4.3h18.95Z" clip-rule="evenodd"/>
  <path fill="#0D0D0D" d="M77.994 0H92v60H77.994v-5.773h7.939V5.773h-7.94V0Z"/>
</svg>
