<svg xmlns="http://www.w3.org/2000/svg" width="24" height="24" fill="none" viewBox="0 0 24 24">
  <g clip-path="url(#a)">
    <path fill="#0D0D0D" fill-rule="evenodd" d="M6.842.912A3.162 3.162 0 0 0 6.19 1.96L1.117 15.408a3.162 3.162 0 0 0 1.842 4.075l10.757 4.06a3.164 3.164 0 0 0 4.075-1.844l5.074-13.448a3.161 3.161 0 0 0-1.84-4.076L10.265.116a3.162 3.162 0 0 0-3.423.796Zm2.139 4.25a.862.862 0 0 1 1.112-.501l8.065 3.042a.862.862 0 1 1-.608 1.614L9.483 6.275a.862.862 0 0 1-.502-1.112ZM7.662 8.66a.862.862 0 0 1 1.11-.503l8.067 3.042a.861.861 0 0 1 .326 1.398.865.865 0 0 1-.934.218L8.164 9.77a.862.862 0 0 1-.502-1.11Zm-1.319 3.497a.863.863 0 0 1 1.11-.503l5.38 2.029a.862.862 0 0 1-.276 1.67.862.862 0 0 1-.332-.055l-5.38-2.03a.863.863 0 0 1-.502-1.111Z" clip-rule="evenodd"/>
  </g>
  <defs>
    <clipPath id="a">
      <path fill="#fff" d="M0 0h24v24H0z"/>
    </clipPath>
  </defs>
</svg>
