<svg xmlns="http://www.w3.org/2000/svg" width="24" height="24" fill="none" viewBox="0 0 24 24">
  <path fill="#0D0D0D" d="M11.644 1.59a.75.75 0 0 1 .712 0l9.75 5.25a.75.75 0 0 1 0 1.32l-9.75 5.25a.75.75 0 0 1-.712 0l-9.75-5.25a.75.75 0 0 1 0-1.32l9.75-5.25Z"/>
  <path fill="#0D0D0D" d="m3.265 10.602 7.668 4.129a2.25 2.25 0 0 0 2.134 0l7.668-4.13 1.37.739a.75.75 0 0 1 0 1.32l-9.75 5.25a.75.75 0 0 1-.71 0l-9.75-5.25a.75.75 0 0 1 0-1.32l1.37-.738Z"/>
  <path fill="#0D0D0D" d="m10.933 19.231-7.668-4.13-1.37.739a.75.75 0 0 0 0 1.32l9.75 5.25c.22.12.489.12.71 0l9.75-5.25a.75.75 0 0 0 0-1.32l-1.37-.738-7.668 4.13a2.25 2.25 0 0 1-2.134-.001Z"/>
</svg>
