<svg width="384" height="95" viewBox="0 0 384 95" fill="none" xmlns="http://www.w3.org/2000/svg">
<path d="M0.5 74V65.1406L5.375 64.4375L26.4219 5.75H42.2188L63.2188 64.4375L68.0469 65.1406V74H43.7656V65.1406L48.3594 64.2969L45.7812 55.8594H22.7656L20.2812 64.2969L24.875 65.1406V74H0.5ZM26.1406 45.0781H42.4062L35.0938 22.9531L34.3906 20.75H34.1094L33.3594 23.1406L26.1406 45.0781ZM71.5625 74V65.1406L77.8906 63.6875V11.2344L70.625 9.78125V0.875H92.8906V63.6875L99.1719 65.1406V74H71.5625ZM125.562 94.4844C122.938 94.4844 119.969 94.1562 116.656 93.5C113.375 92.8438 110.484 91.8906 107.984 90.6406L110.562 80.1406C112.875 81.1094 115.266 81.8594 117.734 82.3906C120.234 82.9219 122.531 83.1875 124.625 83.1875C128.156 83.1875 130.75 82.2031 132.406 80.2344C134.062 78.2969 134.891 75.6094 134.891 72.1719V69.3125C133.422 71.125 131.703 72.5312 129.734 73.5312C127.797 74.5 125.562 74.9844 123.031 74.9844C118.906 74.9844 115.359 73.9531 112.391 71.8906C109.453 69.7969 107.203 66.8594 105.641 63.0781C104.109 59.2969 103.344 54.9062 103.344 49.9062V48.9219C103.344 43.6094 104.109 38.9688 105.641 35C107.203 31 109.422 27.8906 112.297 25.6719C115.172 23.4531 118.625 22.3438 122.656 22.3438C125.625 22.3438 128.172 22.9844 130.297 24.2656C132.453 25.5469 134.281 27.3438 135.781 29.6562L136.766 23.2812H149.891V72.2656C149.891 76.7344 148.906 80.625 146.938 83.9375C145 87.2812 142.203 89.875 138.547 91.7188C134.922 93.5625 130.594 94.4844 125.562 94.4844ZM127.344 63.4062C129 63.4062 130.469 63.0938 131.75 62.4688C133.031 61.8438 134.078 60.9375 134.891 59.75V38.0938C134.078 36.75 133.031 35.7188 131.75 35C130.469 34.2812 129.016 33.9219 127.391 33.9219C125.234 33.9219 123.484 34.5469 122.141 35.7969C120.797 37.0469 119.828 38.7969 119.234 41.0469C118.641 43.2969 118.344 45.9219 118.344 48.9219V49.9062C118.344 54.125 119.016 57.4375 120.359 59.8438C121.734 62.2188 124.062 63.4062 127.344 63.4062ZM148.109 33.875L141.453 23.2812H155.797V32.2344L148.109 33.875ZM177.125 74.9844C172.125 74.9844 168.109 73.625 165.078 70.9062C162.078 68.1562 160.578 64.4531 160.578 59.7969C160.578 56.6406 161.422 53.8438 163.109 51.4062C164.828 48.9688 167.391 47.0625 170.797 45.6875C174.203 44.3125 178.438 43.625 183.5 43.625H189.547V40.25C189.547 38 188.891 36.1406 187.578 34.6719C186.297 33.2031 184.328 32.4688 181.672 32.4688C180.391 32.4688 179.219 32.625 178.156 32.9375C177.125 33.25 176.172 33.7031 175.297 34.2969L174.219 40.8594H163.531L163.344 27.2656C166.094 25.8594 169.031 24.6875 172.156 23.75C175.281 22.8125 178.75 22.3438 182.562 22.3438C189.344 22.3438 194.703 23.9062 198.641 27.0312C202.578 30.1562 204.547 34.6094 204.547 40.3906V60.2656C204.547 60.9844 204.547 61.6875 204.547 62.375C204.578 63.0312 204.656 63.6719 204.781 64.2969L210.125 65.1406V74H192.125C191.75 73.2812 191.359 72.4375 190.953 71.4688C190.547 70.5 190.266 69.5312 190.109 68.5625C188.516 70.5312 186.688 72.0938 184.625 73.25C182.562 74.4062 180.062 74.9844 177.125 74.9844ZM181.438 64.1562C183 64.1562 184.516 63.8125 185.984 63.125C187.453 62.4375 188.641 61.5 189.547 60.3125V52.625H183.594C180.969 52.625 178.953 53.2188 177.547 54.4062C176.172 55.5938 175.484 57.0625 175.484 58.8125C175.484 60.5 176.016 61.8125 177.078 62.75C178.172 63.6875 179.625 64.1562 181.438 64.1562Z" fill="#006C4C"/>
<path d="M229.203 74V65.1406L236.422 63.6875V17.3281H224.891L224.281 25.1094H212.984V5.75H275.047V25.1094H263.609L263.047 17.3281H251.422V63.6875L258.641 65.1406V74H229.203ZM300.5 74.9844C295.375 74.9844 290.984 73.9062 287.328 71.75C283.703 69.5625 280.922 66.5312 278.984 62.6562C277.078 58.75 276.125 54.2344 276.125 49.1094V48.1719C276.125 43.1094 277.078 38.6406 278.984 34.7656C280.922 30.8906 283.703 27.8594 287.328 25.6719C290.953 23.4531 295.312 22.3438 300.406 22.3438C305.5 22.3438 309.859 23.4375 313.484 25.625C317.109 27.8125 319.875 30.8438 321.781 34.7188C323.719 38.5938 324.688 43.0781 324.688 48.1719V49.1094C324.688 54.2031 323.719 58.7031 321.781 62.6094C319.875 66.4844 317.109 69.5156 313.484 71.7031C309.891 73.8906 305.562 74.9844 300.5 74.9844ZM300.5 63.5469C302.688 63.5469 304.453 62.9531 305.797 61.7656C307.172 60.5781 308.172 58.9062 308.797 56.75C309.453 54.5938 309.781 52.0469 309.781 49.1094V48.1719C309.781 45.3281 309.453 42.8438 308.797 40.7188C308.172 38.5625 307.172 36.875 305.797 35.6562C304.422 34.4375 302.625 33.8281 300.406 33.8281C298.219 33.8281 296.438 34.4375 295.062 35.6562C293.688 36.875 292.688 38.5625 292.062 40.7188C291.438 42.8438 291.125 45.3281 291.125 48.1719V49.1094C291.125 52.0469 291.438 54.6094 292.062 56.7969C292.688 58.9531 293.688 60.625 295.062 61.8125C296.438 62.9688 298.25 63.5469 300.5 63.5469ZM330.453 93.5V84.5938L336.922 83.1406V33.6406L329.703 32.1875V23.2812H350.844L351.453 29.0938C352.891 26.9375 354.625 25.2813 356.656 24.125C358.688 22.9375 361.156 22.3438 364.062 22.3438C368.094 22.3438 371.547 23.4531 374.422 25.6719C377.328 27.8906 379.547 31 381.078 35C382.641 38.9688 383.422 43.6094 383.422 48.9219V49.9062C383.422 54.9062 382.641 59.2969 381.078 63.0781C379.547 66.8594 377.312 69.7969 374.375 71.8906C371.469 73.9531 367.969 74.9844 363.875 74.9844C361.25 74.9844 358.938 74.5156 356.938 73.5781C354.969 72.6094 353.266 71.1875 351.828 69.3125V83.1406L358.016 84.5938V93.5H330.453ZM359.422 63.5469C362.672 63.5469 364.984 62.3281 366.359 59.8906C367.734 57.4531 368.422 54.125 368.422 49.9062V48.9219C368.422 45.9219 368.109 43.2969 367.484 41.0469C366.859 38.7969 365.875 37.0469 364.531 35.7969C363.219 34.5469 361.484 33.9219 359.328 33.9219C357.672 33.9219 356.203 34.2969 354.922 35.0469C353.641 35.7656 352.609 36.8438 351.828 38.2812V59.75C352.609 61 353.641 61.9531 354.922 62.6094C356.234 63.2344 357.734 63.5469 359.422 63.5469Z" fill="black"/>
</svg>
