<?xml version="1.0" encoding="utf-8"?>
<svg width="40" height="26" fill="none" viewBox="0 0 40 26" xmlns="http://www.w3.org/2000/svg">
  <path fill="#0D0D0D" d="M0 0h6.07v2.502H2.63v20.996h3.44V26H0V0Z"/>
  <path fill="#0D0D0D" fill-rule="evenodd" d="M 26.342 19.76 C 24.799 21.368 22.673 22.173 19.966 22.173 C 18.243 22.173 16.722 21.783 15.402 21.002 C 14.082 20.245 13.052 19.168 12.314 17.772 C 11.934 17.038 11.655 16.257 11.485 15.448 L 21.462 15.448 L 19.666 11.492 L 11.331 11.492 C 11.481 10.265 11.821 9.154 12.348 8.156 C 13.084 6.809 14.19 5.701 15.536 4.963 C 16.923 4.206 18.546 3.827 20.402 3.827 C 21.834 3.827 23.188 4.087 24.462 4.608 C 25.738 5.128 26.812 5.862 27.685 6.808 L 25.2 9.505 C 24.663 8.985 23.98 8.57 23.153 8.263 C 22.321 7.978 21.448 7.834 20.569 7.837 C 19.249 7.837 18.153 8.168 17.28 8.831 C 16.43 9.493 15.927 10.38 15.77 11.491 L 32.4 11.491 L 33.796 15.448 L 28.47 15.448 C 28.156 17.188 27.446 18.625 26.341 19.76 L 26.342 19.76 Z M 24.226 15.448 C 24.047 16.172 23.649 16.822 23.086 17.311 C 22.326 17.974 21.331 18.305 20.1 18.305 C 18.914 18.305 17.941 17.974 17.18 17.311 C 16.63 16.835 16.24 16.214 16.014 15.448 L 24.226 15.448 Z" clip-rule="evenodd" style=""/>
  <path fill="#0D0D0D" d="M33.797 0h6.07v26h-6.07v-2.502h3.44V2.502h-3.44V0Z"/>
</svg>