<svg width="55" height="55" viewBox="0 0 55 55" fill="none" xmlns="http://www.w3.org/2000/svg">
<path d="M7.14375 42.3667V46.0104M7.14375 46.0104V49.6542M7.14375 46.0104H10.7875M7.14375 46.0104H3.5M30.2208 3.5L31.0852 10.3009C32.1758 18.8814 38.8061 25.7083 47.351 27.0491L52.0833 27.7917L47.351 28.5342C38.8061 29.875 32.1758 36.7019 31.0852 45.2824L30.2208 52.0833L29.3565 45.2824C28.2659 36.7019 21.6356 29.875 13.0906 28.5342L8.35833 27.7917L13.0906 27.0491C21.6356 25.7083 28.2659 18.8814 29.3565 10.3009L30.2208 3.5ZM10.7875 3.5L10.9687 4.60009C11.4764 7.68259 13.8924 10.0986 16.9749 10.6063L18.075 10.7875L16.9749 10.9687C13.8924 11.4764 11.4764 13.8924 10.9687 16.9749L10.7875 18.075L10.6063 16.9749C10.0986 13.8924 7.68259 11.4764 4.60009 10.9687L3.5 10.7875L4.60009 10.6063C7.68259 10.0986 10.0986 7.68259 10.6063 4.60009L10.7875 3.5Z" stroke="#C5C5C5" stroke-width="5.39815" stroke-linecap="round" stroke-linejoin="round"/>
</svg>
